<?xml version="1.0" standalone="no"?>
<!DOCTYPE svg PUBLIC "-//W3C//DTD SVG 20010904//EN"
 "http://www.w3.org/TR/2001/REC-SVG-20010904/DTD/svg10.dtd">
<svg version="1.0" xmlns="http://www.w3.org/2000/svg"
 width="512.000000pt" height="512.000000pt" viewBox="0 0 512.000000 512.000000"
 preserveAspectRatio="xMidYMid meet">
<metadata>
Created by potrace 1.14, written by Peter Selinger 2001-2017
</metadata>
<g transform="translate(0.000000,512.000000) scale(0.100000,-0.100000)"
fill="#000000" stroke="none">
<path d="M1415 5113 c-69 -10 -245 -55 -310 -80 -180 -67 -333 -163 -461 -289
-182 -178 -291 -343 -427 -644 -65 -145 -135 -383 -170 -580 -35 -196 -42
-285 -41 -540 1 -198 14 -364 38 -475 2 -11 11 -54 20 -95 53 -254 162 -520
300 -730 210 -319 494 -550 846 -686 87 -33 292 -91 352 -99 18 -3 44 -7 57
-10 20 -4 47 -7 156 -20 11 -1 25 -3 32 -4 6 0 33 -31 59 -68 194 -271 471
-511 737 -637 83 -40 267 -109 267 -100 0 2 8 0 18 -5 9 -5 34 -12 56 -15 21
-4 41 -8 45 -10 19 -12 144 -21 291 -21 135 0 184 4 269 23 385 86 676 299
831 610 64 127 83 212 86 382 2 128 -1 159 -26 265 -24 106 -27 137 -25 265 2
125 6 158 29 235 46 155 122 292 274 500 37 50 69 92 73 95 3 3 45 61 93 130
99 141 186 311 212 415 21 82 28 274 13 355 -71 380 -407 729 -842 875 -130
43 -261 66 -390 67 -92 1 -202 -6 -260 -18 -12 -2 -38 -7 -57 -10 -75 -13
-284 -76 -380 -114 -138 -55 -283 -129 -423 -216 -66 -41 -120 -74 -122 -74
-3 0 -21 145 -40 335 -51 483 -201 734 -538 896 -140 67 -255 91 -447 94 -91
1 -178 0 -195 -2z m281 -388 c172 -17 339 -118 413 -249 50 -88 87 -244 106
-446 22 -235 34 -326 61 -453 8 -38 12 -73 8 -76 -33 -33 -187 -203 -239 -266
-140 -168 -304 -440 -379 -630 -16 -38 -32 -79 -37 -90 -19 -46 -60 -186 -79
-271 -29 -133 -35 -208 -35 -409 1 -194 15 -299 61 -458 14 -49 24 -90 22 -92
-2 -2 -35 4 -73 15 -39 10 -81 22 -95 25 -14 4 -34 11 -45 15 -11 5 -54 23
-95 40 -65 27 -236 122 -250 139 -3 3 -23 19 -45 35 -133 97 -313 321 -403
501 -78 158 -157 411 -177 570 -4 28 -9 66 -11 85 -11 84 -14 134 -14 280 -1
145 4 244 15 315 2 17 7 53 10 80 4 28 10 66 15 85 5 19 12 51 15 70 3 19 13
60 21 90 9 30 17 60 19 65 29 127 122 347 204 485 207 347 436 499 831 554 19
2 108 -2 176 -9z m2283 -900 c206 -30 417 -137 561 -284 197 -202 241 -421
128 -646 -29 -60 -83 -137 -300 -432 -161 -218 -262 -420 -315 -628 -21 -82
-26 -130 -29 -265 -3 -166 4 -242 41 -395 56 -240 -41 -475 -260 -625 -223
-154 -554 -203 -835 -124 -135 38 -291 117 -420 213 -76 56 -250 218 -250 231
0 4 44 18 98 30 514 119 918 468 1072 927 93 278 78 580 -41 813 -78 153 -186
268 -364 385 -33 22 -96 76 -140 120 -81 80 -182 225 -170 245 11 17 166 124
267 184 115 67 323 166 351 166 7 0 17 4 22 9 6 4 38 16 73 25 193 53 376 71
511 51z m-1478 -782 c61 -95 225 -255 344 -338 55 -39 121 -92 147 -119 204
-209 199 -565 -12 -870 -182 -263 -484 -429 -844 -464 -73 -7 -89 -6 -100 7
-15 17 -77 178 -95 247 -47 176 -59 442 -26 588 3 11 7 32 9 46 31 190 144
455 284 665 77 115 227 305 241 305 4 0 27 -30 52 -67z"/>
</g>
</svg>
